<mxfile host="app.diagrams.net" agent="Mozilla/5.0 (Windows NT 10.0; Win64; x64) AppleWebKit/537.36 (KHTML, like Gecko) Chrome/135.0.0.0 Safari/537.36" version="26.2.9">
  <diagram name="Página-1" id="g-IIqMKu_lJesTIld9p_">
    <mxGraphModel dx="447" dy="489" grid="0" gridSize="10" guides="1" tooltips="1" connect="1" arrows="1" fold="1" page="1" pageScale="1" pageWidth="827" pageHeight="1169" math="0" shadow="0">
      <root>
        <mxCell id="0" />
        <mxCell id="1" parent="0" />
        <mxCell id="thj0B7o3OY_fiGW2r-BC-4" value="" style="edgeStyle=orthogonalEdgeStyle;rounded=0;orthogonalLoop=1;jettySize=auto;html=1;" edge="1" parent="1" source="thj0B7o3OY_fiGW2r-BC-1" target="thj0B7o3OY_fiGW2r-BC-3">
          <mxGeometry relative="1" as="geometry" />
        </mxCell>
        <mxCell id="thj0B7o3OY_fiGW2r-BC-1" value="Inicio" style="ellipse;whiteSpace=wrap;html=1;" vertex="1" parent="1">
          <mxGeometry x="395" y="12" width="74" height="42" as="geometry" />
        </mxCell>
        <mxCell id="thj0B7o3OY_fiGW2r-BC-7" value="" style="edgeStyle=orthogonalEdgeStyle;rounded=0;orthogonalLoop=1;jettySize=auto;html=1;" edge="1" parent="1" source="thj0B7o3OY_fiGW2r-BC-3" target="thj0B7o3OY_fiGW2r-BC-6">
          <mxGeometry relative="1" as="geometry" />
        </mxCell>
        <mxCell id="thj0B7o3OY_fiGW2r-BC-3" value="Introducce un número" style="shape=parallelogram;perimeter=parallelogramPerimeter;whiteSpace=wrap;html=1;fixedSize=1;" vertex="1" parent="1">
          <mxGeometry x="377" y="79" width="110" height="30" as="geometry" />
        </mxCell>
        <mxCell id="thj0B7o3OY_fiGW2r-BC-9" value="" style="edgeStyle=orthogonalEdgeStyle;rounded=0;orthogonalLoop=1;jettySize=auto;html=1;" edge="1" parent="1" source="thj0B7o3OY_fiGW2r-BC-6" target="thj0B7o3OY_fiGW2r-BC-8">
          <mxGeometry relative="1" as="geometry" />
        </mxCell>
        <mxCell id="thj0B7o3OY_fiGW2r-BC-6" value="Lee numero" style="shape=parallelogram;perimeter=parallelogramPerimeter;whiteSpace=wrap;html=1;fixedSize=1;" vertex="1" parent="1">
          <mxGeometry x="377" y="137" width="110" height="30" as="geometry" />
        </mxCell>
        <mxCell id="thj0B7o3OY_fiGW2r-BC-8" value="numero % 2 == 0" style="rhombus;whiteSpace=wrap;html=1;" vertex="1" parent="1">
          <mxGeometry x="378.5" y="193" width="107" height="70" as="geometry" />
        </mxCell>
        <mxCell id="thj0B7o3OY_fiGW2r-BC-16" style="edgeStyle=orthogonalEdgeStyle;rounded=0;orthogonalLoop=1;jettySize=auto;html=1;entryX=0;entryY=0.5;entryDx=0;entryDy=0;exitX=0.46;exitY=0.909;exitDx=0;exitDy=0;exitPerimeter=0;" edge="1" parent="1" source="thj0B7o3OY_fiGW2r-BC-11" target="thj0B7o3OY_fiGW2r-BC-15">
          <mxGeometry relative="1" as="geometry">
            <Array as="points">
              <mxPoint x="340" y="450" />
            </Array>
          </mxGeometry>
        </mxCell>
        <mxCell id="thj0B7o3OY_fiGW2r-BC-11" value="El número es impar" style="shape=document;whiteSpace=wrap;html=1;boundedLbl=1;" vertex="1" parent="1">
          <mxGeometry x="306.5" y="312" width="72" height="73" as="geometry" />
        </mxCell>
        <mxCell id="thj0B7o3OY_fiGW2r-BC-17" style="edgeStyle=orthogonalEdgeStyle;rounded=0;orthogonalLoop=1;jettySize=auto;html=1;entryX=1;entryY=0.5;entryDx=0;entryDy=0;exitX=0.614;exitY=0.765;exitDx=0;exitDy=0;exitPerimeter=0;" edge="1" parent="1" source="thj0B7o3OY_fiGW2r-BC-12" target="thj0B7o3OY_fiGW2r-BC-15">
          <mxGeometry relative="1" as="geometry">
            <Array as="points">
              <mxPoint x="531" y="450" />
            </Array>
          </mxGeometry>
        </mxCell>
        <mxCell id="thj0B7o3OY_fiGW2r-BC-12" value="El número es par" style="shape=document;whiteSpace=wrap;html=1;boundedLbl=1;" vertex="1" parent="1">
          <mxGeometry x="487" y="312" width="72" height="73" as="geometry" />
        </mxCell>
        <mxCell id="thj0B7o3OY_fiGW2r-BC-13" style="edgeStyle=orthogonalEdgeStyle;rounded=0;orthogonalLoop=1;jettySize=auto;html=1;entryX=0.539;entryY=-0.043;entryDx=0;entryDy=0;entryPerimeter=0;" edge="1" parent="1" source="thj0B7o3OY_fiGW2r-BC-8" target="thj0B7o3OY_fiGW2r-BC-11">
          <mxGeometry relative="1" as="geometry">
            <Array as="points">
              <mxPoint x="345" y="228" />
              <mxPoint x="345" y="309" />
            </Array>
          </mxGeometry>
        </mxCell>
        <mxCell id="thj0B7o3OY_fiGW2r-BC-14" style="edgeStyle=orthogonalEdgeStyle;rounded=0;orthogonalLoop=1;jettySize=auto;html=1;entryX=0.58;entryY=0.021;entryDx=0;entryDy=0;entryPerimeter=0;" edge="1" parent="1" source="thj0B7o3OY_fiGW2r-BC-8" target="thj0B7o3OY_fiGW2r-BC-12">
          <mxGeometry relative="1" as="geometry" />
        </mxCell>
        <mxCell id="thj0B7o3OY_fiGW2r-BC-15" value="Inicio" style="ellipse;whiteSpace=wrap;html=1;" vertex="1" parent="1">
          <mxGeometry x="395" y="426" width="71" height="48" as="geometry" />
        </mxCell>
        <mxCell id="thj0B7o3OY_fiGW2r-BC-18" value="V" style="text;html=1;align=center;verticalAlign=middle;whiteSpace=wrap;rounded=0;" vertex="1" parent="1">
          <mxGeometry x="483" y="202" width="60" height="30" as="geometry" />
        </mxCell>
        <mxCell id="thj0B7o3OY_fiGW2r-BC-20" value="F" style="text;html=1;align=center;verticalAlign=middle;whiteSpace=wrap;rounded=0;" vertex="1" parent="1">
          <mxGeometry x="329" y="198" width="60" height="30" as="geometry" />
        </mxCell>
      </root>
    </mxGraphModel>
  </diagram>
</mxfile>
